<?xml version="1.0" encoding="UTF-8" standalone="no"?>
<svg
   xmlns:dc="http://purl.org/dc/elements/1.1/"
   xmlns:cc="http://creativecommons.org/ns#"
   xmlns:rdf="http://www.w3.org/1999/02/22-rdf-syntax-ns#"
   xmlns:svg="http://www.w3.org/2000/svg"
   xmlns="http://www.w3.org/2000/svg"
   viewBox="0 0 2035.7467 759.77332"
   height="759.77332"
   width="2035.7467"
   xml:space="preserve"
   id="svg2"
   version="1.1"><metadata
     id="metadata8"><rdf:RDF><cc:Work
         rdf:about=""><dc:format>image/svg+xml</dc:format><dc:type
           rdf:resource="http://purl.org/dc/dcmitype/StillImage" /></cc:Work></rdf:RDF></metadata><defs
     id="defs6"><clipPath
       id="clipPath18"
       clipPathUnits="userSpaceOnUse"><path
         id="path16"
         d="M 0,569.83 H 1526.808 V 0 H 0 Z" /></clipPath></defs><g
     transform="matrix(1.3333333,0,0,-1.3333333,0,759.77333)"
     id="g10"><g
       id="g12"><g
         clip-path="url(#clipPath18)"
         id="g14"><g
           transform="translate(1141.6306,458.2702)"
           id="g20"><path
             id="path22"
             style="fill:#ffffff;fill-opacity:1;fill-rule:nonzero;stroke:none"
             d="M 0,0 C 0.033,8.652 6.63,15.908 14.729,16.2 22.83,16.493 29.368,9.716 29.33,1.061 29.295,-7.592 22.7,-14.845 14.604,-15.141 6.503,-15.433 -0.033,-8.652 0,0 m -222.428,5.365 c 0.039,9.085 7.282,16.703 16.178,17.007 8.894,0.308 15.032,-6.807 14.993,-15.895 -0.037,-9.083 -6.241,-16.701 -15.135,-17.008 -8.896,-0.306 -16.078,6.81 -16.036,15.896 m -279.4,-56.845 c 9.317,0 14.661,-8.563 13.735,-20.889 -1.088,-14.467 -11.613,-31.005 -29.911,-44.029 -9.58,27.195 -2.454,64.918 16.176,64.918 m -124.565,-196.372 c -9.583,0 -14.64,9.078 -14.64,19.378 0,27.709 20.343,42.419 45.42,55.044 -1.151,-60.579 -15.215,-74.422 -30.78,-74.422 M 26.524,-62.319 c 0,16.206 -0.968,27.033 -11.581,27.033 -4.832,0 -7.184,-0.945 -11.428,-2.364 3.759,-54.798 -8.628,-103.049 -23.731,-103.049 -19.818,0 -9.923,117.445 -51.921,117.445 -38.699,0 -44.261,-93.748 -48.654,-93.748 -3.007,0 -3.458,24.617 -3.304,43.378 1.633,9.004 2.494,17.079 2.494,23.216 0,8.728 -3.538,23.831 -23.359,16.281 0.699,-67.032 -12.737,-107.565 -27.839,-107.565 -22.18,0 -22.415,60.788 -22.415,77.547 0,16.359 1.177,38.224 -23.124,30.435 -3.644,-58.484 -18.952,-102.615 -28.609,-102.615 -14.418,0 -11.521,101.025 -42.689,101.025 -27.984,0 -36.649,-95.677 -42.483,-95.677 -10.448,0 3.256,107.723 -37.187,107.723 -21.208,0 -29.639,-35.979 -37.946,-76.223 -1.616,-7.812 -3.312,-8.037 -3.581,0.756 -0.217,7.237 -0.275,15.225 -0.198,22.555 10.212,40.462 -2.253,55.407 -20.994,44.622 6.047,-74.662 -28.219,-111.162 -54.526,-111.162 -9.509,0 -16.972,4.043 -22.558,10.433 31.531,19.326 45.544,41.534 45.544,63.196 0,23.511 -13.487,37.044 -35.915,37.044 -31.281,0 -48.772,-32.218 -48.772,-59.586 0,-14.731 2.743,-27.256 7.284,-37.571 -10.749,-5.129 -20.888,-9.559 -30.313,-13.869 -0.812,28.174 -4.002,57.762 -6.424,85.046 -16.643,4.573 -21.501,-3.425 -22.793,-18.256 -2.95,-33.806 -15.479,-54.803 -26.552,-54.803 -8.341,0 -13.421,10.145 -14.035,20.937 -3.092,54.199 40.907,69.275 63.922,61.428 4.783,11.934 -0.467,20.551 -21.223,20.551 -25.178,0 -44.007,-15.306 -57.805,-34.918 -9.213,-13.096 -19.849,-22.377 -33.991,-33.606 0.359,3.242 0.547,6.465 0.547,9.634 0,38.236 -20.702,55.013 -40.478,55.013 -16.367,0 -26.656,-9.829 -32.614,-24.867 -1.475,15.082 -4.475,21.601 -13.251,21.601 -3.777,0 -8.973,-1.071 -14.585,-3.774 2.564,-8.434 3.567,-27.105 3.567,-39.405 0,-45.967 -13.17,-66.569 -25.841,-66.569 -14.491,0 -16.786,54.521 -17.995,75.738 -1.868,0.642 -3.916,1.306 -7.099,1.306 -13.1,0 -14.806,-17.596 -18.038,-33.781 -3.58,-17.914 -13.914,-40.474 -29.204,-40.474 -9.237,0 -15.004,8.924 -15.74,24.943 -1.493,32.501 25.54,71.012 67.851,59.038 5.551,12.941 -3.153,22.798 -20.715,22.798 -30.922,0 -56.487,-23.15 -67.63,-50.544 -11.325,-25.1 -31.144,-61.98 -71.446,-61.98 -28.463,0 -50.235,24.8 -50.235,76.892 0,44.903 28.307,87.553 58.504,87.553 21.129,0 26.026,-20.778 24.165,-40.28 10.926,-8.799 28.886,-0.633 28.886,21.32 0,15.129 -12.284,40.777 -51.926,40.777 -49.087,0 -92.449,-48.926 -92.449,-113.256 0,-62.262 31.611,-99.068 76.344,-99.068 28.226,0 54.86,16.104 73.248,45.83 4.612,-26.021 22.34,-36.967 35.629,-36.967 21.51,0 35.554,13.916 43.224,32.765 4.789,-18.887 14.896,-32.835 31.658,-32.835 11.818,0 21.035,5.974 27.982,15.588 -2.75,-65.62 -6.231,-107.454 32.545,-99.213 -5.993,18.641 -7.902,52.617 -7.902,83.101 0,83.445 13.765,110.904 31.014,110.904 12.496,0 16.54,-15.937 16.54,-32.926 0,-9.103 -0.865,-19.557 -3.177,-29.014 -21.22,-13.354 -38.141,-23.906 -38.141,-37.326 0,-10.608 7.861,-11.595 14.678,-11.595 16.289,0 35.868,15.969 46.698,46.117 9.467,5.723 18.959,12.292 28.043,21.226 -0.311,-3.057 -0.486,-6.147 -0.486,-9.267 0,-29.936 13.106,-47.998 34.013,-47.998 16.379,0 28.674,11.607 37.34,29.011 0.547,-10.025 0.887,-19.26 1.036,-27.761 -33.224,-15.357 -69.995,-30.975 -69.995,-74.317 0,-22.431 16.181,-39.324 37.283,-39.324 46.297,0 56.849,48.866 57.278,105.62 15.074,6.541 26.298,11.577 39.253,17.979 11.076,-13.864 26.126,-20.805 39.937,-20.805 26.12,0 45.742,13.838 61.5,41.915 2.79,-21.371 8.34,-41.915 19.692,-41.915 20.711,0 24.9,108.277 40.303,108.277 11.8,0 2.103,-117.16 33.25,-117.16 26.663,0 31.668,103.103 44.645,103.103 9.202,0 9.911,-94.24 38.932,-94.24 14.285,0 29.783,17.154 37.544,53.12 3.641,-23.923 15.719,-53.12 39.319,-53.12 13.767,0 25.606,13.929 34.739,32.439 2.516,-19.051 7.917,-32.439 18.33,-32.439 27.136,0 26.223,108.057 47.7,108.057 16.755,0 11.562,-108.057 51.44,-108.057 18.996,0 27.974,16.172 33.326,36.464 7.341,-29.847 19.199,-36.464 28.949,-36.464 6.171,0 10.842,2.169 16.959,9.473 -30.839,13.382 -28.238,62.063 -28.238,93.5 m 284.625,-10.62 c -6.712,13.42 -20.828,19.183 -35.305,18.5 -13.982,-0.659 -24.178,-9.558 -31.958,-20.498 -8.806,-12.38 -14.988,-26.511 -22.177,-39.841 -6.928,-12.847 -14.382,-25.433 -24.356,-36.188 -11.06,-11.927 -24.959,-20.914 -40.564,-25.636 7.219,-5.2 17.223,-6.366 25.848,-6.698 9.751,-0.376 19.608,0.515 29.204,2.234 17.524,3.139 36.446,9.286 49.401,22.079 -20.217,-0.262 -36.519,13.333 -37.969,33.829 13.003,-15.75 32.68,-21.816 52.37,-16.211 17.25,4.911 31.109,18.55 36.696,35.541 3.548,10.787 3.896,22.511 -1.19,32.889 m -0.646,14.903 c -6.566,21.833 -19.869,40.971 -37.532,57.194 -19.078,17.433 -41.743,30.644 -65.504,40.612 -1.91,0.801 -3.832,1.584 -5.765,2.346 h -0.001 c -0.003,0.002 -0.006,0.003 -0.01,0.005 C 172.443,7.066 71.134,-19.095 71.134,-92.559 c 0,-28.737 18.163,-55.587 44.805,-66.365 16.568,-5.614 34.413,-4.57 50.32,2.674 15.373,7.001 27.076,19.327 36.505,33.07 9.953,14.508 17.531,30.439 26.988,45.248 8.786,13.759 20.018,27.492 36.683,31.37 15.106,3.516 33.006,-0.41 44.068,-11.474" /></g><g
           transform="translate(605.4681,204.5275)"
           id="g24"><path
             id="path26"
             style="fill:#ffffff;fill-opacity:1;fill-rule:nonzero;stroke:none"
             d="m 0,0 c -1.208,-2.783 -2.586,-6.169 -4.134,-10.159 -1.55,-3.991 -3.164,-8.322 -4.844,-12.994 H 8.978 C 7.297,-18.481 5.67,-14.125 4.095,-10.081 2.52,-6.039 1.155,-2.678 0,0 m 16.104,-44.022 c -0.736,2.152 -1.499,4.278 -2.289,6.378 -0.79,2.1 -1.553,4.253 -2.289,6.458 h -23.052 c -0.737,-2.205 -1.487,-4.371 -2.251,-6.497 -0.762,-2.126 -1.513,-4.24 -2.249,-6.339 h -10.319 c 2.045,5.827 3.987,11.209 5.823,16.144 1.836,4.934 3.632,9.607 5.39,14.018 1.757,4.409 3.501,8.61 5.232,12.6 1.731,3.989 3.515,7.926 5.351,11.813 H 4.923 C 6.761,6.666 8.546,2.729 10.278,-1.26 c 1.733,-3.99 3.477,-8.191 5.237,-12.6 1.76,-4.411 3.571,-9.084 5.435,-14.018 1.863,-4.935 3.82,-10.317 5.868,-16.144 z" /></g><g
           transform="translate(655.2776,207.0475)"
           id="g28"><path
             id="path30"
             style="fill:#ffffff;fill-opacity:1;fill-rule:nonzero;stroke:none"
             d="m 0,0 c -2.52,0 -4.594,-0.079 -6.221,-0.237 v -18.585 h 4.804 c 4.777,0 8.452,0.67 11.025,2.008 2.572,1.339 3.858,3.871 3.858,7.599 0,1.785 -0.341,3.281 -1.023,4.489 C 11.76,-3.518 10.815,-2.573 9.608,-1.89 8.399,-1.209 6.97,-0.723 5.316,-0.433 3.662,-0.145 1.89,0 0,0 m -0.708,8.583 c 7.927,0 14.003,-1.445 18.23,-4.331 4.226,-2.888 6.34,-7.402 6.34,-13.544 0,-3.204 -0.565,-5.947 -1.694,-8.23 -1.129,-2.285 -2.769,-4.148 -4.921,-5.592 -2.153,-1.445 -4.778,-2.508 -7.875,-3.189 -3.099,-0.683 -6.643,-1.024 -10.632,-1.024 h -4.961 v -19.215 h -9.923 V 7.245 c 2.31,0.524 4.869,0.879 7.678,1.063 2.809,0.184 5.395,0.275 7.758,0.275" /></g><g
           transform="translate(704.3387,207.0475)"
           id="g32"><path
             id="path34"
             style="fill:#ffffff;fill-opacity:1;fill-rule:nonzero;stroke:none"
             d="m 0,0 c -2.52,0 -4.594,-0.079 -6.221,-0.237 v -18.585 h 4.804 c 4.777,0 8.452,0.67 11.025,2.008 2.572,1.339 3.858,3.871 3.858,7.599 0,1.785 -0.341,3.281 -1.023,4.489 C 11.76,-3.518 10.815,-2.573 9.608,-1.89 8.399,-1.209 6.97,-0.723 5.316,-0.433 3.662,-0.145 1.89,0 0,0 m -0.708,8.583 c 7.926,0 14.003,-1.445 18.23,-4.331 4.226,-2.888 6.34,-7.402 6.34,-13.544 0,-3.204 -0.565,-5.947 -1.694,-8.23 -1.129,-2.285 -2.769,-4.148 -4.921,-5.592 -2.153,-1.445 -4.778,-2.508 -7.875,-3.189 -3.099,-0.683 -6.643,-1.024 -10.632,-1.024 h -4.961 v -19.215 h -9.923 V 7.245 c 2.31,0.524 4.869,0.879 7.678,1.063 2.808,0.184 5.395,0.275 7.758,0.275" /></g><g
           transform="translate(771.7488,169.0885)"
           id="g36"><path
             id="path38"
             style="fill:#ffffff;fill-opacity:1;fill-rule:nonzero;stroke:none"
             d="m 0,0 v -8.583 h -34.493 v 54.575 h 9.923 V 0 Z" /></g><path
           id="path40"
           style="fill:#ffffff;fill-opacity:1;fill-rule:nonzero;stroke:none"
           d="m 779.308,215.08 h 9.923 v -54.575 h -9.923 z" /><g
           transform="translate(802.3035,160.505)"
           id="g42"><path
             id="path44"
             style="fill:#ffffff;fill-opacity:1;fill-rule:nonzero;stroke:none"
             d="M 0,0 V 54.575 H 35.045 V 46.148 H 9.923 V 32.682 H 32.288 V 24.413 H 9.923 V 8.427 H 36.935 V 0 Z" /></g><g
           transform="translate(858.3748,168.696)"
           id="g46"><path
             id="path48"
             style="fill:#ffffff;fill-opacity:1;fill-rule:nonzero;stroke:none"
             d="m 0,0 c 0.577,-0.053 1.339,-0.093 2.283,-0.119 0.946,-0.027 2.232,-0.039 3.86,-0.039 6.666,0 11.641,1.693 14.922,5.079 3.282,3.386 4.923,8.123 4.923,14.215 0,6.195 -1.602,10.946 -4.804,14.254 -3.203,3.307 -8.164,4.962 -14.884,4.962 -2.941,0 -5.04,-0.08 -6.3,-0.238 z m 36.383,19.136 c 0,-4.725 -0.736,-8.833 -2.205,-12.325 C 32.707,3.319 30.62,0.406 27.917,-1.93 25.213,-4.267 21.957,-6 18.152,-7.128 14.345,-8.256 10.132,-8.821 5.513,-8.821 c -2.205,0 -4.701,0.092 -7.482,0.276 -2.784,0.184 -5.433,0.563 -7.954,1.141 v 53 c 2.521,0.577 5.197,0.945 8.032,1.103 2.836,0.157 5.356,0.236 7.561,0.236 4.567,0 8.741,-0.539 12.521,-1.614 3.781,-1.077 7.022,-2.756 9.726,-5.04 2.703,-2.284 4.79,-5.172 6.261,-8.663 1.469,-3.492 2.205,-7.653 2.205,-12.482" /></g><path
           id="path50"
           style="fill:#ffffff;fill-opacity:1;fill-rule:nonzero;stroke:none"
           d="m 923.972,215.08 h 9.923 v -54.575 h -9.923 z" /><g
           transform="translate(983.7449,160.505)"
           id="g52"><path
             id="path54"
             style="fill:#ffffff;fill-opacity:1;fill-rule:nonzero;stroke:none"
             d="m 0,0 c -1.785,2.992 -3.78,6.208 -5.985,9.647 -2.204,3.438 -4.489,6.903 -6.851,10.395 -2.363,3.491 -4.766,6.877 -7.207,10.159 -2.44,3.28 -4.764,6.234 -6.969,8.86 V 0 h -9.765 v 54.575 h 8.112 c 2.099,-2.205 4.357,-4.817 6.772,-7.835 2.414,-3.021 4.843,-6.157 7.285,-9.412 2.441,-3.255 4.803,-6.524 7.087,-9.804 2.284,-3.282 4.318,-6.339 6.104,-9.174 V 54.575 H 8.427 V 0 Z" /></g><g
           transform="translate(1042.0203,160.505)"
           id="g56"><path
             id="path58"
             style="fill:#ffffff;fill-opacity:1;fill-rule:nonzero;stroke:none"
             d="m 0,0 c -1.785,2.992 -3.78,6.208 -5.986,9.647 -2.204,3.438 -4.489,6.903 -6.85,10.395 -2.363,3.491 -4.766,6.877 -7.207,10.159 -2.441,3.28 -4.765,6.234 -6.97,8.86 V 0 h -9.764 v 54.575 h 8.112 c 2.099,-2.205 4.356,-4.817 6.772,-7.835 2.415,-3.021 4.843,-6.157 7.285,-9.412 2.441,-3.255 4.803,-6.524 7.087,-9.804 2.283,-3.282 4.317,-6.339 6.104,-9.174 V 54.575 H 8.426 L 8.426,0 Z" /></g><g
           transform="translate(1071.6296,187.8322)"
           id="g60"><path
             id="path62"
             style="fill:#ffffff;fill-opacity:1;fill-rule:nonzero;stroke:none"
             d="m 0,0 c 0,-2.993 0.366,-5.709 1.103,-8.151 0.735,-2.442 1.797,-4.516 3.189,-6.221 1.391,-1.707 3.084,-3.032 5.079,-3.978 1.995,-0.944 4.253,-1.417 6.774,-1.417 2.466,0 4.697,0.473 6.693,1.417 1.994,0.946 3.687,2.271 5.079,3.978 1.391,1.705 2.453,3.779 3.189,6.221 0.736,2.442 1.104,5.158 1.104,8.151 0,2.992 -0.368,5.709 -1.104,8.15 -0.736,2.442 -1.798,4.515 -3.189,6.222 -1.392,1.705 -3.085,3.032 -5.079,3.976 -1.996,0.945 -4.227,1.419 -6.693,1.419 -2.521,0 -4.779,-0.474 -6.774,-1.419 C 7.376,17.404 5.683,16.065 4.292,14.332 2.9,12.6 1.838,10.526 1.103,8.111 0.366,5.695 0,2.992 0,0 m 42.604,0 c 0,-4.673 -0.696,-8.795 -2.086,-12.364 -1.392,-3.572 -3.282,-6.551 -5.67,-8.939 -2.39,-2.389 -5.186,-4.187 -8.388,-5.394 -3.202,-1.207 -6.614,-1.811 -10.237,-1.811 -3.622,0 -7.048,0.604 -10.278,1.811 -3.228,1.207 -6.038,3.005 -8.425,5.394 -2.39,2.388 -4.292,5.367 -5.71,8.939 -1.417,3.569 -2.126,7.691 -2.126,12.364 0,4.672 0.709,8.781 2.126,12.324 1.418,3.544 3.347,6.523 5.789,8.939 2.44,2.414 5.261,4.225 8.464,5.433 3.203,1.208 6.589,1.812 10.16,1.812 3.57,0 6.956,-0.604 10.158,-1.812 3.202,-1.208 5.998,-3.019 8.388,-5.433 2.388,-2.416 4.292,-5.395 5.71,-8.939 C 41.896,8.781 42.604,4.672 42.604,0" /></g><g
           transform="translate(1139.1277,160.505)"
           id="g64"><path
             id="path66"
             style="fill:#ffffff;fill-opacity:1;fill-rule:nonzero;stroke:none"
             d="m 0,0 c -3.939,8.506 -7.736,17.404 -11.387,26.697 -3.651,9.293 -7.051,18.585 -10.203,27.878 h 10.95 c 1.263,-3.675 2.552,-7.429 3.869,-11.262 1.316,-3.833 2.631,-7.599 3.948,-11.301 1.315,-3.701 2.63,-7.284 3.946,-10.749 1.315,-3.465 2.606,-6.642 3.869,-9.529 1.211,2.887 2.474,6.05 3.79,9.49 1.316,3.438 2.644,7.021 3.987,10.75 1.341,3.727 2.67,7.506 3.987,11.339 1.315,3.833 2.579,7.587 3.79,11.262 H 31.181 C 27.967,45.282 24.541,35.99 20.906,26.697 17.27,17.404 13.477,8.506 9.524,0 Z" /></g><g
           transform="translate(1193.1833,204.5275)"
           id="g68"><path
             id="path70"
             style="fill:#ffffff;fill-opacity:1;fill-rule:nonzero;stroke:none"
             d="m 0,0 c -1.209,-2.783 -2.587,-6.169 -4.135,-10.159 -1.549,-3.991 -3.163,-8.322 -4.844,-12.994 H 8.978 C 7.296,-18.481 5.67,-14.125 4.095,-10.081 2.52,-6.039 1.153,-2.678 0,0 m 16.104,-44.022 c -0.737,2.152 -1.5,4.278 -2.29,6.378 -0.79,2.1 -1.552,4.253 -2.289,6.458 h -23.051 c -0.738,-2.205 -1.488,-4.371 -2.251,-6.497 -0.763,-2.126 -1.514,-4.24 -2.249,-6.339 h -10.32 c 2.046,5.827 3.988,11.209 5.824,16.144 1.835,4.934 3.631,9.607 5.389,14.018 1.758,4.409 3.5,8.61 5.233,12.6 1.73,3.989 3.514,7.926 5.35,11.813 H 4.923 C 6.76,6.666 8.545,2.729 10.278,-1.26 c 1.733,-3.99 3.478,-8.191 5.237,-12.6 1.76,-4.411 3.571,-9.084 5.435,-14.018 1.863,-4.935 3.82,-10.317 5.866,-16.144 z" /></g><g
           transform="translate(1260.3982,215.0802)"
           id="g72"><path
             id="path74"
             style="fill:#ffffff;fill-opacity:1;fill-rule:nonzero;stroke:none"
             d="m 0,0 v -8.585 h -16.774 v -45.99 h -10.001 v 45.99 H -43.55 V 0 Z" /></g><path
           id="path76"
           style="fill:#ffffff;fill-opacity:1;fill-rule:nonzero;stroke:none"
           d="m 1267.958,215.08 h 9.922 v -54.575 h -9.922 z" /><g
           transform="translate(1299.0632,187.8322)"
           id="g78"><path
             id="path80"
             style="fill:#ffffff;fill-opacity:1;fill-rule:nonzero;stroke:none"
             d="m 0,0 c 0,-2.993 0.366,-5.709 1.103,-8.151 0.735,-2.442 1.797,-4.516 3.189,-6.221 1.391,-1.707 3.084,-3.032 5.079,-3.978 1.995,-0.944 4.253,-1.417 6.774,-1.417 2.466,0 4.697,0.473 6.693,1.417 1.994,0.946 3.687,2.271 5.079,3.978 1.391,1.705 2.453,3.779 3.189,6.221 0.736,2.442 1.104,5.158 1.104,8.151 0,2.992 -0.368,5.709 -1.104,8.15 -0.736,2.442 -1.798,4.515 -3.189,6.222 -1.392,1.705 -3.085,3.032 -5.079,3.976 -1.996,0.945 -4.227,1.419 -6.693,1.419 -2.521,0 -4.779,-0.474 -6.774,-1.419 C 7.376,17.404 5.683,16.065 4.292,14.332 2.9,12.6 1.838,10.526 1.103,8.111 0.366,5.695 0,2.992 0,0 m 42.604,0 c 0,-4.673 -0.696,-8.795 -2.086,-12.364 -1.392,-3.572 -3.282,-6.551 -5.67,-8.939 -2.39,-2.389 -5.186,-4.187 -8.388,-5.394 -3.202,-1.207 -6.614,-1.811 -10.237,-1.811 -3.622,0 -7.048,0.604 -10.278,1.811 -3.228,1.207 -6.038,3.005 -8.425,5.394 -2.39,2.388 -4.292,5.367 -5.71,8.939 -1.417,3.569 -2.126,7.691 -2.126,12.364 0,4.672 0.709,8.781 2.126,12.324 1.418,3.544 3.347,6.523 5.788,8.939 2.441,2.414 5.262,4.225 8.465,5.433 3.203,1.208 6.589,1.812 10.16,1.812 3.57,0 6.956,-0.604 10.158,-1.812 3.202,-1.208 5.998,-3.019 8.388,-5.433 2.388,-2.416 4.292,-5.395 5.71,-8.939 C 41.896,8.781 42.604,4.672 42.604,0" /></g><g
           transform="translate(1389.3123,160.505)"
           id="g82"><path
             id="path84"
             style="fill:#ffffff;fill-opacity:1;fill-rule:nonzero;stroke:none"
             d="m 0,0 c -1.785,2.992 -3.78,6.208 -5.985,9.647 -2.204,3.438 -4.489,6.903 -6.851,10.395 -2.363,3.491 -4.766,6.877 -7.207,10.159 -2.44,3.28 -4.764,6.234 -6.969,8.86 V 0 h -9.764 v 54.575 h 8.111 c 2.099,-2.205 4.357,-4.817 6.772,-7.835 2.414,-3.021 4.843,-6.157 7.285,-9.412 2.441,-3.255 4.803,-6.524 7.087,-9.804 2.284,-3.282 4.318,-6.339 6.104,-9.174 V 54.575 H 8.427 L 8.427,0 Z" /></g><g
           transform="translate(995.6365,73.0041)"
           id="g86"><path
             id="path88"
             style="fill:#ffffff;fill-opacity:1;fill-rule:nonzero;stroke:none"
             d="M 0,0 V 54.575 H 35.045 V 46.148 H 9.923 V 32.681 H 32.288 V 24.413 H 9.923 V 8.427 H 36.935 V 0 Z" /></g><g
           transform="translate(1074.1833,73.0041)"
           id="g90"><path
             id="path92"
             style="fill:#ffffff;fill-opacity:1;fill-rule:nonzero;stroke:none"
             d="m 0,0 c -1.526,2.861 -3.445,6.014 -5.759,9.456 -2.313,3.444 -4.731,6.764 -7.255,9.966 -1.045,-1.255 -2.181,-2.751 -3.408,-4.486 -1.226,-1.737 -2.453,-3.511 -3.681,-5.32 -1.226,-1.808 -2.362,-3.558 -3.406,-5.247 -1.043,-1.687 -1.88,-3.144 -2.51,-4.369 h -11.34 c 2.414,4.365 5.203,8.845 8.369,13.442 3.165,4.597 6.598,9.412 10.302,14.445 l -17.884,26.688 h 11.812 l 11.946,-17.916 11.995,17.916 h 11.34 L -7.157,28.17 C -3.075,22.842 0.539,17.796 3.684,13.037 6.827,8.277 9.474,3.932 11.624,0 Z" /></g><g
           transform="translate(1116.1267,71.8229)"
           id="g94"><path
             id="path96"
             style="fill:#ffffff;fill-opacity:1;fill-rule:nonzero;stroke:none"
             d="m 0,0 c -4.096,0 -7.771,0.63 -11.026,1.89 -3.255,1.26 -6.013,3.11 -8.269,5.551 -2.258,2.442 -3.99,5.421 -5.197,8.939 -1.209,3.516 -1.813,7.56 -1.813,12.128 0,4.568 0.697,8.61 2.088,12.128 1.391,3.516 3.294,6.496 5.709,8.938 2.414,2.441 5.249,4.292 8.506,5.552 3.254,1.26 6.745,1.89 10.474,1.89 2.257,0 4.304,-0.171 6.142,-0.512 1.837,-0.342 3.439,-0.722 4.805,-1.142 1.363,-0.421 2.491,-0.866 3.386,-1.339 0.891,-0.472 1.522,-0.814 1.89,-1.023 L 13.78,44.888 c -1.259,0.787 -3.058,1.535 -5.393,2.244 -2.338,0.71 -4.871,1.064 -7.6,1.064 -2.362,0 -4.567,-0.407 -6.616,-1.22 -2.047,-0.815 -3.819,-2.036 -5.316,-3.663 -1.496,-1.628 -2.665,-3.675 -3.503,-6.142 -0.84,-2.468 -1.26,-5.33 -1.26,-8.585 0,-2.887 0.326,-5.539 0.983,-7.953 0.656,-2.416 1.666,-4.503 3.032,-6.261 1.365,-1.76 3.098,-3.124 5.198,-4.095 2.099,-0.972 4.62,-1.457 7.56,-1.457 3.517,0 6.379,0.355 8.584,1.063 2.205,0.709 3.91,1.378 5.118,2.008 L 17.246,3.78 C 16.616,3.359 15.762,2.939 14.687,2.521 13.609,2.099 12.337,1.693 10.866,1.299 9.396,0.905 7.742,0.59 5.905,0.354 4.066,0.118 2.099,0 0,0" /></g><g
           transform="translate(1175.74,127.5793)"
           id="g98"><path
             id="path100"
             style="fill:#ffffff;fill-opacity:1;fill-rule:nonzero;stroke:none"
             d="M 0,0 H 9.922 V -54.575 H 0 v 24.177 h -23.704 v -24.177 h -9.923 V 0 h 9.923 V -21.815 H 0 Z" /></g><g
           transform="translate(1218.9333,117.0265)"
           id="g102"><path
             id="path104"
             style="fill:#ffffff;fill-opacity:1;fill-rule:nonzero;stroke:none"
             d="m 0,0 c -1.208,-2.783 -2.586,-6.17 -4.134,-10.159 -1.549,-3.991 -3.163,-8.322 -4.844,-12.994 H 8.978 C 7.297,-18.481 5.671,-14.125 4.096,-10.081 2.521,-6.039 1.154,-2.678 0,0 m 16.105,-44.022 c -0.737,2.152 -1.5,4.278 -2.291,6.378 -0.789,2.1 -1.551,4.253 -2.288,6.458 h -23.051 c -0.738,-2.205 -1.488,-4.371 -2.251,-6.497 -0.763,-2.126 -1.514,-4.24 -2.249,-6.339 h -10.32 c 2.046,5.827 3.988,11.209 5.824,16.144 1.835,4.934 3.631,9.607 5.389,14.018 1.757,4.409 3.5,8.61 5.233,12.6 1.73,3.989 3.514,7.926 5.35,11.813 H 4.924 C 6.761,6.666 8.546,2.729 10.279,-1.26 c 1.733,-3.99 3.478,-8.191 5.237,-12.6 1.759,-4.411 3.571,-9.084 5.435,-14.018 1.863,-4.935 3.82,-10.317 5.866,-16.144 z" /></g><g
           transform="translate(1289.3767,73.0041)"
           id="g106"><path
             id="path108"
             style="fill:#ffffff;fill-opacity:1;fill-rule:nonzero;stroke:none"
             d="m 0,0 c -1.785,2.992 -3.78,6.208 -5.985,9.646 -2.204,3.439 -4.489,6.904 -6.851,10.396 -2.363,3.491 -4.766,6.877 -7.206,10.159 -2.441,3.28 -4.765,6.234 -6.97,8.86 V 0 h -9.764 v 54.575 h 8.111 c 2.1,-2.205 4.357,-4.817 6.772,-7.836 2.414,-3.02 4.844,-6.156 7.285,-9.411 2.441,-3.256 4.803,-6.524 7.087,-9.804 2.284,-3.282 4.318,-6.339 6.104,-9.174 V 54.575 H 8.427 L 8.427,0 Z" /></g><g
           transform="translate(1336.3904,120.0973)"
           id="g110"><path
             id="path112"
             style="fill:#ffffff;fill-opacity:1;fill-rule:nonzero;stroke:none"
             d="m 0,0 c -5.617,0 -9.91,-1.746 -12.875,-5.237 -2.968,-3.492 -4.45,-8.335 -4.45,-14.529 0,-2.942 0.354,-5.631 1.062,-8.073 0.709,-2.441 1.76,-4.528 3.151,-6.26 1.391,-1.733 3.123,-3.086 5.198,-4.055 2.073,-0.972 4.501,-1.458 7.284,-1.458 1.733,0 3.229,0.065 4.489,0.197 1.26,0.13 2.257,0.301 2.993,0.513 v 19.608 h 9.922 v -26.224 c -1.365,-0.525 -3.675,-1.103 -6.929,-1.732 -3.257,-0.63 -7.01,-0.945 -11.262,-0.945 -3.937,0 -7.535,0.63 -10.789,1.889 -3.257,1.26 -6.024,3.097 -8.309,5.513 -2.283,2.415 -4.055,5.38 -5.315,8.899 -1.26,3.516 -1.89,7.56 -1.89,12.128 0,4.567 0.695,8.609 2.087,12.128 1.39,3.516 3.294,6.496 5.709,8.937 2.414,2.441 5.25,4.293 8.505,5.553 3.255,1.26 6.721,1.89 10.396,1.89 2.52,0 4.764,-0.171 6.733,-0.512 1.969,-0.342 3.661,-0.722 5.08,-1.142 1.417,-0.421 2.585,-0.866 3.504,-1.339 0.918,-0.472 1.56,-0.814 1.929,-1.023 L 13.23,-3.386 C 11.655,-2.441 9.699,-1.641 7.363,-0.984 5.027,-0.329 2.572,0 0,0" /></g><g
           transform="translate(1364.6619,73.0041)"
           id="g114"><path
             id="path116"
             style="fill:#ffffff;fill-opacity:1;fill-rule:nonzero;stroke:none"
             d="M 0,0 V 54.575 H 35.045 V 46.148 H 9.923 V 32.681 H 32.289 V 24.413 H 9.923 V 8.427 h 27.013 l 0,-8.427 z" /></g></g></g></g></svg>